<svg version="1.0" xmlns="http://www.w3.org/2000/svg" width="1200px" height="1200px" viewBox="0 0 12000 12000" preserveAspectRatio="xMidYMid meet">
<g id="layer101" fill="#040B1B" stroke="none">
 <path d="M5665 11984 c-22 -2 -101 -8 -175 -14 -619 -51 -1261 -211 -1846 -463 -1717 -738 -3011 -2258 -3458 -4062 -76 -305 -125 -598 -158 -935 -17 -179 -17 -838 0 -1020 65 -683 204 -1236 465 -1855 54 -130 280 -582 300 -602 9 -9 29 9 87 83 220 280 571 536 905 659 55 20 101 38 103 40 2 1 -42 94 -97 206 -145 298 -244 561 -325 869 -154 586 -191 1230 -105 1830 105 733 394 1452 821 2047 272 379 628 742 1003 1024 622 468 1373 778 2140 883 247 34 349 40 640 40 384 0 672 -30 1005 -104 673 -150 1306 -450 1860 -880 148 -116 214 -174 389 -345 591 -577 1013 -1288 1232 -2078 303 -1092 196 -2253 -300 -3272 -552 -1132 -1543 -1996 -2741 -2392 -693 -228 -1472 -288 -2195 -167 -145 24 -370 73 -479 105 -56 16 -106 29 -112 29 -6 0 -16 -38 -23 -87 -38 -276 -135 -549 -279 -788 -58 -96 -182 -264 -246 -332 l-58 -63 28 -11 c242 -96 770 -225 1119 -273 331 -46 399 -50 840 -51 450 0 535 6 875 55 942 139 1839 503 2620 1063 519 373 1001 855 1379 1380 556 772 923 1676 1061 2617 49 339 55 426 55 875 0 486 -13 645 -85 1055 -261 1485 -1103 2842 -2330 3756 -879 655 -1878 1041 -3000 1160 -135 15 -810 28 -915 18z"/>
 <path d="M5785 9174 c-487 -36 -862 -137 -1259 -336 -326 -164 -568 -339 -831 -603 -260 -261 -443 -511 -597 -820 -161 -320 -256 -623 -315 -1005 -26 -166 -26 -694 0 -860 99 -640 336 -1168 738 -1641 457 -540 1106 -923 1799 -1063 419 -85 872 -83 1285 4 815 172 1529 653 1994 1340 290 429 450 852 528 1400 22 154 25 601 5 750 -35 256 -82 464 -155 675 -399 1160 -1427 1992 -2645 2140 -122 14 -452 26 -547 19z"/>
 <path d="M2255 3491 c-219 -41 -317 -72 -470 -146 -336 -164 -607 -430 -772 -760 -60 -118 -71 -147 -109 -270 -91 -293 -98 -642 -19 -940 50 -187 145 -388 263 -555 86 -121 271 -306 390 -390 589 -415 1347 -423 1947 -22 152 102 322 280 452 473 245 367 341 848 253 1274 -137 665 -658 1185 -1330 1326 -150 31 -462 36 -605 10z"/>
 </g>
</svg>
